<?xml version="1.0" encoding="iso-8859-1"?>
<!-- Generator: Adobe Illustrator 16.0.0, SVG Export Plug-In . SVG Version: 6.00 Build 0)  -->
<!DOCTYPE svg PUBLIC "-//W3C//DTD SVG 1.1//EN" "http://www.w3.org/Graphics/SVG/1.1/DTD/svg11.dtd">
<svg version="1.1" id="Capa_1" xmlns="http://www.w3.org/2000/svg" xmlns:xlink="http://www.w3.org/1999/xlink" x="0px" y="0px"
	 width="940.838px" height="940.838px" viewBox="0 0 940.838 940.838" style="enable-background:new 0 0 940.838 940.838;"
	 xml:space="preserve">
<g>
	<g>
		<path d="M382.587,0c-4.993,0-9.818,1.808-13.587,5.089L169.716,178.671c-8.603,7.495-9.505,20.592-2.013,29.193l233.002,267.501
			l11.754,13.494l11.95,13.721c-9.571,0.99-19.716,2.354-29.751,4.23c-36.883,6.906-60.356,18.801-64.404,32.631
			c-1.296,4.422-3.096,21.168,8.113,81.021c6.888,36.775,17.64,84.287,31.958,141.211c19.545,77.701,40.511,152.033,48.263,179.164
			h156.069l13.769-255.023c0,0-19.079-177.572-21.125-197.01c-1.089-10.344-3.327-21.193-3.327-31.594l-1.738-16.506v-0.813
			c0-3.202-0.444-6.3-1.258-9.247c-4.062-14.703-17.547-25.534-33.523-25.534c-19.178,0-34.78,15.604-34.78,34.781v19.785
			c0,62.324-0.483,124.646-0.483,186.968c0,5.014-2.505,9.695-6.675,12.479c-2.502,1.67-5.404,2.521-8.326,2.521
			c-1.948,0-3.905-0.379-5.758-1.148c-2.896-1.203-28.484-12.432-34.621-35.354c-2.349-8.771-2.627-22.52,9.381-38.197
			c0.202-0.264,0.413-0.52,0.632-0.77l15.367-17.52l-0.483-56.754l-9.898-11.363l-12.457-14.303l-12.241-14.053L185.152,194.402
			L382.464,22.538l28.205,32.381l11.42-3.638l11.419-3.637L398.193,7.102C394.263,2.588,388.574,0,382.587,0z"/>
		<path d="M598.015,514.172l8.687,82.496h0.751c13.307,0,24.003-4.711,31.795-13.998c6.657-7.938,10.633-18.947,10.633-29.453
			c0-23.355-21.938-39.045-42.428-39.045H598.015z"/>
		<path d="M777.753,420.025L647.973,12.592c-1.313-4.123-5.125-6.754-9.232-6.753c-0.975,0-1.966,0.148-2.943,0.459l-186.545,59.42
			l-11.419,3.638l-11.421,3.638l-42.431,13.515c-5.1,1.625-7.917,7.076-6.293,12.177l89.89,282.202l6.562,20.6
			c1.286-1.779,2.656-3.495,4.108-5.135c7.479-8.441,17.088-14.945,27.979-18.672c6.665-2.28,13.801-3.537,21.229-3.537
			c16.688,0,31.271,6.257,42.162,16.54c5.933,5.6,10.771,12.391,14.249,20.024c1.618,3.549,2.933,7.282,3.938,11.157
			c1.065,4.107,1.772,8.375,2.092,12.767c0.106,1.453,0.186,2.915,0.204,4.394l5.19,49.291l9.315-2.967l14.372-4.578l152.479-48.569
			C776.561,430.577,779.378,425.125,777.753,420.025z"/>
	</g>
</g>
<g>
</g>
<g>
</g>
<g>
</g>
<g>
</g>
<g>
</g>
<g>
</g>
<g>
</g>
<g>
</g>
<g>
</g>
<g>
</g>
<g>
</g>
<g>
</g>
<g>
</g>
<g>
</g>
<g>
</g>
</svg>
